/* XPM */
static const char *const zoom_out_xpm[] = {
"16 16 2 1",
". c black",
"  c None",
"      ....      ",
"    ........    ",
"   ....  ....   ",
"  ...  ..  ...  ",
" ...   ..   ... ",
" ..    ..    .. ",
"...    ..    ...",
".. .......... ..",
".. .......... ..",
"...    ..    ...",
" ..    ..    .. ",
" ...   ..   ... ",
"  ...  ..  ...  ",
"   ....  ....   ",
"    ........    ",
"      ....      "
};
