/* XPM */
static const char *const zoom_in_xpm[] = {
"16 16 2 1",
". c black",
"  c None",
"      ....      ",
"    ........    ",
"   ....  ....   ",
"  ...      ...  ",
" ...        ... ",
" ..          .. ",
"...          ...",
".. .......... ..",
".. .......... ..",
"...          ...",
" ..          .. ",
" ...        ... ",
"  ...      ...  ",
"   ....  ....   ",
"    ........    ",
"      ....      "
};
